<svg xmlns="http://www.w3.org/2000/svg" xmlns:xlink="http://www.w3.org/1999/xlink" id="Capa_1" x="0px" y="0px" viewBox="0 0 496 496" style="enable-background:new 0 0 496 496;" xml:space="preserve">
<path d="M488,320V136c4.418,0,8-3.582,8-8s-3.582-8-8-8h-64c-4.418,0-8,3.582-8,8s3.582,8,8,8v40h-16v-16c0-4.418-3.582-8-8-8  s-8,3.582-8,8v16h-16v-16c0-4.418-3.582-8-8-8s-8,3.582-8,8v16h-16v-16c0-4.418-3.582-8-8-8s-8,3.582-8,8v16h-16v-16  c0-4.418-3.582-8-8-8s-8,3.582-8,8v16h-16v-40c4.418,0,8-3.582,8-8s-3.582-8-8-8h-64c-4.418,0-8,3.582-8,8s3.582,8,8,8v40h-16v-16  c0-4.418-3.582-8-8-8s-8,3.582-8,8v16h-16v-16c0-4.418-3.582-8-8-8s-8,3.582-8,8v16h-16v-16c0-4.418-3.582-8-8-8s-8,3.582-8,8v16  h-16v-16c0-4.418-3.582-8-8-8s-8,3.582-8,8v16H72v-40c4.418,0,8-3.582,8-8s-3.582-8-8-8H8c-4.418,0-8,3.582-8,8s3.582,8,8,8v184  c-4.418,0-8,3.582-8,8v40c0,4.418,3.582,8,8,8h64c4.418,0,8-3.582,8-8v-16h128v16c0,4.418,3.582,8,8,8h64c4.418,0,8-3.582,8-8v-16  h128v16c0,4.418,3.582,8,8,8h64c4.418,0,8-3.582,8-8v-40C496,323.582,492.418,320,488,320z M440,320V168h32v152H440z M472,136v16  h-32v-16H472z M392,192v144h-16V192H392z M360,192v144h-16V192H360z M328,192v144h-16V192H328z M232,320V168h32v152H232z M264,136  v16h-32v-16H264z M184,192v144h-16V192H184z M152,192v144h-16V192H152z M120,192v144h-16V192H120z M56,136v16H24v-16H56z M24,168h32  v152H24V168z M64,360H16v-24h48V360z M72,320V192h16v144h-8v-8C80,323.582,76.418,320,72,320z M200,336V192h16v128  c-4.418,0-8,3.582-8,8v8H200z M272,360h-48v-24h48V360z M280,320V192h16v144h-8v-8C288,323.582,284.418,320,280,320z M408,336V192  h16v128c-4.418,0-8,3.582-8,8v8H408z M480,360h-48v-24h48V360z"></path>
<g>
</g>
<g>
</g>
<g>
</g>
<g>
</g>
<g>
</g>
<g>
</g>
<g>
</g>
<g>
</g>
<g>
</g>
<g>
</g>
<g>
</g>
<g>
</g>
<g>
</g>
<g>
</g>
<g>
</g>
</svg>