<svg xmlns="http://www.w3.org/2000/svg" xmlns:xlink="http://www.w3.org/1999/xlink" id="Layer_1" x="0px" y="0px" viewBox="0 0 512 512" style="enable-background:new 0 0 512 512;" xml:space="preserve">
<g>
	<g>
		<path d="M396.558,477.315v-69.893c0-10.1-8.188-18.288-18.288-18.288h-5.74v-36.08c0-10.1-8.188-18.288-18.288-18.288h-7.992    V94.733C346.25,42.496,303.754,0,251.518,0H229.17c-34.548,0-63.58,24.001-71.344,56.2c-30.151,7.318-52.612,34.525-52.612,66.894    c0,37.961,30.883,68.844,68.844,68.844s68.844-30.883,68.844-68.844c0-30.354-19.755-56.165-47.077-65.296    c5.884-12.525,18.615-21.221,33.344-21.221h22.348c32.068,0,58.157,26.09,58.157,58.157v240.034h-7.991    c-10.1,0-18.288,8.188-18.288,18.288v36.08h-5.741c-10.1,0-18.288,8.188-18.288,18.288v69.893    c-6.053,2.981-10.229,9.194-10.229,16.397c0,10.1,8.188,18.288,18.288,18.288h121.072c10.1,0,18.288-8.188,18.288-18.288    C406.786,486.509,402.611,480.296,396.558,477.315z M206.326,123.092c0,17.793-14.475,32.268-32.268,32.268    c-17.793,0-32.268-14.476-32.268-32.268c0-17.793,14.476-32.268,32.268-32.268C191.85,90.824,206.326,105.301,206.326,123.092z     M319.972,371.343h15.981v17.792h-15.981V371.343z M359.982,475.424h-64.038V425.71h64.038V475.424z"></path>
	</g>
</g>
<g>
</g>
<g>
</g>
<g>
</g>
<g>
</g>
<g>
</g>
<g>
</g>
<g>
</g>
<g>
</g>
<g>
</g>
<g>
</g>
<g>
</g>
<g>
</g>
<g>
</g>
<g>
</g>
<g>
</g>
</svg>