<svg xmlns="http://www.w3.org/2000/svg" xmlns:xlink="http://www.w3.org/1999/xlink" id="Layer_1" x="0px" y="0px" viewBox="0 0 420.243 420.243" style="enable-background:new 0 0 420.243 420.243;" xml:space="preserve">
<g>
	<path d="M148.044,346.018h41.578v-49.545c-8.827,0-17.654,0-26.481,0C163.14,296.473,152.618,332.76,148.044,346.018z"></path>
	<path d="M205.622,346.018H247.2c-4.574-13.258-15.096-49.545-15.096-49.545c-8.827,0-17.654,0-26.481,0V346.018z"></path>
	<path d="M252.755,362.018h-47.133v58.225c22.265,0,44.529,0,66.793,0C266.074,400.234,252.964,362.62,252.755,362.018z"></path>
	<path d="M62.791,361.529c-15.556,18.854-31.113,37.811-46.669,58.714c29.974,0,59.949,0,89.923,0c0,0,13.333-40.533,19.5-58.225   L62.791,361.529z"></path>
	<path d="M122.827,420.243c22.265,0,44.53,0,66.794,0v-58.225h-47.134C142.278,362.62,129.17,400.234,122.827,420.243z"></path>
	<path d="M146.575,299.649l0.999-3.176c-10.961,0-21.922,0-32.882,0c-13.04,17.522-26.08,33.672-39.12,49.545h55.543   C136.235,331.252,141.443,315.967,146.575,299.649z"></path>
	<path d="M269.698,362.018c6.167,17.692,19.5,58.225,19.5,58.225c29.975,0,59.949,0,89.924,0   c-15.556-20.903-31.113-39.859-46.669-58.713L269.698,362.018z"></path>
	<path d="M264.128,346.018h55.543c-13.04-15.873-26.08-32.023-39.12-49.545c-10.961,0-21.922,0-32.882,0l0.999,3.176   C253.8,315.967,259.007,331.252,264.128,346.018z"></path>
	<path d="M295.994,194.253c6.382-33.387-17.721-60.613-55.202-94c-28.78,0-57.561,0-86.341,0   c-37.481,33.387-61.583,60.613-55.202,94C164.831,194.253,230.412,194.253,295.994,194.253z"></path>
	<path d="M142.535,225.729l-20,34.642c-2.209,3.826-0.897,8.719,2.929,10.929c1.26,0.727,2.635,1.072,3.992,1.072   c2.765,0,5.454-1.435,6.937-4.001l20-34.642c2.209-3.826,0.897-8.719-2.929-10.929   C149.637,220.593,144.745,221.902,142.535,225.729z"></path>
	<path d="M173.714,228.217l-6.667,34.642c-0.835,4.339,2.005,8.532,6.344,9.367c0.511,0.099,1.019,0.146,1.521,0.146   c3.759,0,7.11-2.662,7.847-6.49l6.667-34.642c0.835-4.339-2.005-8.532-6.344-9.367   C178.744,221.036,174.548,223.878,173.714,228.217z"></path>
	<path d="M220.332,272.373c0.501,0,1.01-0.048,1.521-0.146c4.339-0.834,7.179-5.028,6.344-9.367l-6.666-34.642   c-0.834-4.338-5.025-7.187-9.367-6.344c-4.339,0.834-7.179,5.028-6.344,9.367l6.666,34.642   C213.221,269.71,216.573,272.373,220.332,272.373z"></path>
	<path d="M265.788,272.372c1.356,0,2.732-0.346,3.992-1.072c3.826-2.21,5.138-7.103,2.929-10.929l-20-34.642   c-2.21-3.825-7.1-5.136-10.929-2.929c-3.826,2.21-5.138,7.103-2.929,10.929l20,34.642   C260.334,270.937,263.022,272.372,265.788,272.372z"></path>
	<path d="M386.955,237.05h-24.281l12.837-111.939c12.033-3.402,20.879-14.476,20.879-27.583c0-15.807-12.859-28.666-28.666-28.666   c-6.447,0-12.402,2.14-17.196,5.746L247.479,6.291c-11.401-7.559-25.522-8.354-37.776-2.128   c-11.95,6.072-19.442,17.614-20.04,30.868c-0.027,0.614-0.041,1.23-0.041,1.852v9.5h-33.813v37.87h83.625v-37.87h-33.812v-9.5   c0-0.377,0.008-0.751,0.025-1.127c0.334-7.424,4.561-13.902,11.305-17.329c7.045-3.581,15.152-3.132,21.686,1.2l102.264,67.796   c-1.189,3.145-1.844,6.549-1.844,10.104c0,12.92,8.594,23.868,20.365,27.437l-12.749,111.175c-0.035,0.306-0.048,0.609-0.049,0.911   h-21.337c-9.481,0-17.167,7.686-17.167,17.167v19.667h96v-19.667C404.122,244.736,396.436,237.05,386.955,237.05z M355.057,97.528   c0-6.984,5.683-12.666,12.667-12.666s12.666,5.682,12.666,12.666s-5.682,12.667-12.666,12.667S355.057,104.512,355.057,97.528z"></path>
</g>
<g>
</g>
<g>
</g>
<g>
</g>
<g>
</g>
<g>
</g>
<g>
</g>
<g>
</g>
<g>
</g>
<g>
</g>
<g>
</g>
<g>
</g>
<g>
</g>
<g>
</g>
<g>
</g>
<g>
</g>
</svg>