<svg xmlns="http://www.w3.org/2000/svg" xmlns:xlink="http://www.w3.org/1999/xlink" id="Layer_1" x="0px" y="0px" viewBox="0 0 489.15 489.15" style="enable-background:new 0 0 489.15 489.15;" xml:space="preserve">
<g>
	<g>
		<path d="M486.603,214.425l-86.3-201.8c-3.1-7.3-10.4-12.5-18.7-12.5h-274.7c-8.3,0-15.6,5.2-18.7,12.5l-87.4,205    c-2.1,6.2-1.4,28.1,18.7,28.1h89.9c5.5,68.1,64.5,122.8,134.8,122.8s128.4-54.7,134.7-122.8h89.2c0,0,0.3,0,0.8,0    C479.403,245.625,495.403,233.125,486.603,214.425z M244.203,327.825c-47.5,0-87.7-36.1-93-82.2h186.1    C332.103,291.825,292.703,327.825,244.203,327.825z M50.703,205.125l69.7-164.4h247.6l69.7,164.4H50.703z"></path>
		<path d="M244.203,397.525c-11.4,0-20.8,9.4-20.8,20.8v49.9c0,11.4,9.4,20.8,20.8,20.8c11.4,0,19.8-9.4,20.8-20.8v-49.9    C265.003,406.925,255.703,397.525,244.203,397.525z"></path>
		<path d="M350.403,381.925c-5.2-10.4-16.6-14.6-27-9.4s-14.6,16.6-9.4,27l21.8,44.7c9,15.2,23.9,11.4,27,9.4    c10.4-5.2,14.6-16.6,9.4-27L350.403,381.925z"></path>
		<path d="M164.103,372.625c-9.4-5.2-21.8-1-27,9.4l-21.8,44.7c-5.2,9.4-1,21.8,9.4,27c3.1,1,19.1,7.2,27-9.4l21.8-44.7    C178.703,390.225,174.503,377.825,164.103,372.625z"></path>
	</g>
</g>
<g>
</g>
<g>
</g>
<g>
</g>
<g>
</g>
<g>
</g>
<g>
</g>
<g>
</g>
<g>
</g>
<g>
</g>
<g>
</g>
<g>
</g>
<g>
</g>
<g>
</g>
<g>
</g>
<g>
</g>
</svg>