<svg xmlns="http://www.w3.org/2000/svg" xmlns:xlink="http://www.w3.org/1999/xlink" id="Layer_1" x="0px" y="0px" viewBox="0 0 512 512" style="enable-background:new 0 0 512 512;" xml:space="preserve">
<g>
	<g>
		<path d="M469.333,298.667h-25.6v-85.333h25.6c5.12,0,8.533-3.413,8.533-8.533c0-5.12-3.413-8.533-8.533-8.533h-25.6v-8.533    c0-5.12-3.413-8.533-8.533-8.533s-8.533,3.413-8.533,8.533v8.533H409.6v-8.533c0-5.12-3.413-8.533-8.533-8.533    s-8.533,3.413-8.533,8.533v8.533h-17.067V128H409.6c14.507,0,25.6-11.093,25.6-25.6c0-14.507-11.093-25.6-25.6-25.6h-34.133V8.533    c0-5.12-3.413-8.533-8.533-8.533H145.067c-5.12,0-8.533,3.413-8.533,8.533V76.8h-25.6v-8.533c0-5.12-3.413-8.533-8.533-8.533H51.2    c-5.12,0-8.533,3.413-8.533,8.533v68.267c0,5.12,3.413,8.533,8.533,8.533h51.2c5.12,0,8.533-3.413,8.533-8.533V128h25.6v68.267    h-17.067v-8.533c0-5.12-3.413-8.533-8.533-8.533c-5.12,0-8.533,3.413-8.533,8.533v8.533H85.333v-8.533    c0-5.12-3.413-8.533-8.533-8.533s-8.533,3.413-8.533,8.533v8.533h-25.6c-5.12,0-8.533,3.413-8.533,8.533    c0,5.12,3.413,8.533,8.533,8.533h25.6v85.333h-25.6c-5.12,0-8.533,3.413-8.533,8.533s3.413,8.533,8.533,8.533h25.6v8.533    c0,5.12,3.413,8.533,8.533,8.533s8.533-3.413,8.533-8.533v-8.533H102.4v8.533c0,5.12,3.413,8.533,8.533,8.533    c5.12,0,8.533-3.413,8.533-8.533v-8.533h17.067V384H102.4c-14.507,0-25.6,11.093-25.6,25.6c0,14.507,11.093,25.6,25.6,25.6h34.133    v68.267c0,5.12,3.413,8.533,8.533,8.533h221.867c5.12,0,8.533-3.413,8.533-8.533V435.2h25.6v8.533c0,5.12,3.413,8.533,8.533,8.533    h51.2c5.12,0,8.533-3.413,8.533-8.533v-68.267c0-5.12-3.413-8.533-8.533-8.533h-51.2c-5.12,0-8.533,3.413-8.533,8.533V384h-25.6    v-68.267h17.067v8.533c0,5.12,3.413,8.533,8.533,8.533s8.533-3.413,8.533-8.533v-8.533h17.067v8.533    c0,5.12,3.413,8.533,8.533,8.533s8.533-3.413,8.533-8.533v-8.533h25.6c5.12,0,8.533-3.413,8.533-8.533    S474.453,298.667,469.333,298.667z M102.4,298.667H85.333v-85.333H102.4V298.667z M119.467,298.667v-85.333h17.067v85.333H119.467    z M401.067,401.067v17.067h-34.133H145.067H102.4c-5.12,0-8.533-3.413-8.533-8.533s3.413-8.533,8.533-8.533h42.667h221.867    H401.067z M341.333,196.267v-8.533c0-5.12-3.413-8.533-8.533-8.533s-8.533,3.413-8.533,8.533v8.533H307.2v-8.533    c0-5.12-3.413-8.533-8.533-8.533c-5.12,0-8.533,3.413-8.533,8.533v8.533h-25.6v-8.533c0-5.12-3.413-8.533-8.533-8.533    c-5.12,0-8.533,3.413-8.533,8.533v8.533h-25.6v-8.533c0-5.12-3.413-8.533-8.533-8.533s-8.533,3.413-8.533,8.533v8.533h-17.067    v-8.533c0-5.12-3.413-8.533-8.533-8.533s-8.533,3.413-8.533,8.533v8.533H153.6V128h204.8v68.267H341.333z M358.4,213.333v85.333    h-17.067v-85.333H358.4z M324.267,213.333v85.333H307.2v-85.333H324.267z M290.133,213.333v85.333h-25.6v-85.333H290.133z     M247.467,213.333v85.333h-25.6v-85.333H247.467z M204.8,213.333v85.333h-17.067v-85.333H204.8z M170.667,213.333v85.333H153.6    v-85.333H170.667z M170.667,315.733v8.533c0,5.12,3.413,8.533,8.533,8.533s8.533-3.413,8.533-8.533v-8.533H204.8v8.533    c0,5.12,3.413,8.533,8.533,8.533s8.533-3.413,8.533-8.533v-8.533h25.6v8.533c0,5.12,3.413,8.533,8.533,8.533    c5.12,0,8.533-3.413,8.533-8.533v-8.533h25.6v8.533c0,5.12,3.413,8.533,8.533,8.533c5.12,0,8.533-3.413,8.533-8.533v-8.533h17.067    v8.533c0,5.12,3.413,8.533,8.533,8.533s8.533-3.413,8.533-8.533v-8.533H358.4V384H153.6v-68.267H170.667z M366.933,110.933    H145.067h-34.133V93.867h34.133h221.867H409.6c5.12,0,8.533,3.413,8.533,8.533s-3.413,8.533-8.533,8.533H366.933z     M392.533,298.667h-17.067v-85.333h17.067V298.667z M426.667,298.667H409.6v-85.333h17.067V298.667z"></path>
	</g>
</g>
<g>
</g>
<g>
</g>
<g>
</g>
<g>
</g>
<g>
</g>
<g>
</g>
<g>
</g>
<g>
</g>
<g>
</g>
<g>
</g>
<g>
</g>
<g>
</g>
<g>
</g>
<g>
</g>
<g>
</g>
</svg>