<svg xmlns="http://www.w3.org/2000/svg" xmlns:xlink="http://www.w3.org/1999/xlink" id="Layer_1" x="0px" y="0px" viewBox="0 0 512 512" style="enable-background:new 0 0 512 512;" xml:space="preserve">
<g transform="translate(0 -1)">
	<g>
		<g>
			<path d="M256,146.067c-4.713,0-8.533,3.82-8.533,8.533v17.067c0,4.713,3.82,8.533,8.533,8.533c4.713,0,8.533-3.82,8.533-8.533     V154.6C264.533,149.887,260.713,146.067,256,146.067z"></path>
			<path d="M256,391.167c-4.713,0-8.533,3.82-8.533,8.533v35.081c0,4.713,3.82,8.533,8.533,8.533c4.713,0,8.533-3.82,8.533-8.533     V399.7C264.533,394.988,260.713,391.167,256,391.167z"></path>
			<path d="M256,303.461c-4.713,0-8.533,3.82-8.533,8.533v35.081c0,4.713,3.82,8.533,8.533,8.533c4.713,0,8.533-3.82,8.533-8.533     v-35.081C264.533,307.282,260.713,303.461,256,303.461z"></path>
			<path d="M256,215.756c-4.713,0-8.533,3.82-8.533,8.533v35.081c0,4.713,3.82,8.533,8.533,8.533c4.713,0,8.533-3.82,8.533-8.533     v-35.081C264.533,219.576,260.713,215.756,256,215.756z"></path>
			<path d="M460.8,52.198h-51.2c-4.713,0-8.533,3.82-8.533,8.533v8.535h-25.6V9.533c0-4.713-3.82-8.533-8.533-8.533H145.067     c-4.713,0-8.533,3.82-8.533,8.533v59.733h-25.6v-8.535c0-4.713-3.821-8.533-8.533-8.533H51.2c-4.713,0-8.533,3.82-8.533,8.533     v85.333c0,4.713,3.82,8.533,8.533,8.533h51.2c4.713,0,8.533-3.82,8.533-8.533v-8.532h25.422c0.009,0,0.018,0,0.027,0h0.151     v366.933c0,4.713,3.82,8.533,8.533,8.533h221.867c4.713,0,8.533-3.821,8.533-8.533V137.533h25.6v8.532     c0,4.713,3.821,8.533,8.533,8.533h51.2c4.713,0,8.533-3.82,8.533-8.533V60.732C469.333,56.019,465.513,52.198,460.8,52.198z      M319.039,120.467l11.378-34.133h24.677l-11.378,34.133H319.039z M276.373,120.467l11.378-34.133h24.677l-11.378,34.133H276.373z      M233.706,120.467l11.378-34.133h24.677l-11.378,34.133H233.706z M191.039,120.467l11.378-34.133h24.677l-11.378,34.133H191.039z      M148.373,120.467l11.378-34.133h24.677l-11.378,34.133H148.373z M153.6,18.067h204.8v51.2h-33.955c-0.01,0-0.02,0-0.03,0     h-42.637c-0.01,0-0.02,0-0.03,0h-42.637c-0.01,0-0.02,0-0.03,0h-42.637c-0.01,0-0.02,0-0.03,0h-42.637c-0.01,0-0.02,0-0.03,0     H153.6V18.067z M93.867,137.532H59.733V69.265h34.133V77.8V129V137.532z M110.933,86.333h30.827l-11.378,34.133h-19.449V86.333z      M358.4,495.933h-93.867V487.4c0-4.713-3.82-8.533-8.533-8.533c-4.713,0-8.533,3.82-8.533,8.533v8.533H153.6v-358.4h25.422     c0.009,0,0.018,0,0.027,0h42.64c0.009,0,0.018,0,0.027,0h42.64c0.009,0,0.018,0,0.027,0h42.64c0.009,0,0.018,0,0.027,0h42.64     c0.009,0,0.018,0,0.027,0h8.684V495.933z M366.933,120.467h-5.227l11.378-34.133h27.983v34.133H366.933z M452.267,137.532     h-34.133V129V77.8v-8.535h34.133V137.532z"></path>
		</g>
	</g>
</g>
<g>
</g>
<g>
</g>
<g>
</g>
<g>
</g>
<g>
</g>
<g>
</g>
<g>
</g>
<g>
</g>
<g>
</g>
<g>
</g>
<g>
</g>
<g>
</g>
<g>
</g>
<g>
</g>
<g>
</g>
</svg>