<svg xmlns="http://www.w3.org/2000/svg" xmlns:xlink="http://www.w3.org/1999/xlink" id="Layer_1" x="0px" y="0px" viewBox="0 0 512.002 512.002" style="enable-background:new 0 0 512.002 512.002;" xml:space="preserve">
<g transform="translate(0 -1)">
	<g>
		<g>
			<path d="M145.068,364.281c4.713,0,8.533-3.821,8.533-8.533v-32.913c0-4.713-3.82-8.533-8.533-8.533s-8.533,3.82-8.533,8.533     v32.913C136.534,360.461,140.355,364.281,145.068,364.281z"></path>
			<path d="M145.068,446.568c4.713,0,8.533-3.82,8.533-8.533v-32.913c0-4.713-3.82-8.533-8.533-8.533s-8.533,3.82-8.533,8.533     v32.913C136.534,442.748,140.355,446.568,145.068,446.568z"></path>
			<path d="M145.068,117.42c4.713,0,8.533-3.82,8.533-8.533V75.974c0-4.713-3.82-8.533-8.533-8.533s-8.533,3.82-8.533,8.533v32.913     C136.534,113.6,140.355,117.42,145.068,117.42z"></path>
			<path d="M145.068,281.994c4.713,0,8.533-3.82,8.533-8.533v-32.913c0-4.713-3.82-8.533-8.533-8.533s-8.533,3.821-8.533,8.533     v32.913C136.534,278.174,140.355,281.994,145.068,281.994z"></path>
			<path d="M145.068,199.707c4.713,0,8.533-3.82,8.533-8.533v-32.913c0-4.713-3.82-8.533-8.533-8.533s-8.533,3.821-8.533,8.533     v32.913C136.534,195.887,140.355,199.707,145.068,199.707z"></path>
			<path d="M477.868,1.002H273.101c-0.011,0-0.022-0.002-0.034-0.002h-34.133c-0.011,0-0.022,0.002-0.034,0.002H34.134     c-4.713,0-8.533,3.82-8.533,8.533v494.933c0,4.713,3.82,8.533,8.533,8.533h443.733c4.713,0,8.533-3.821,8.533-8.533V9.535     C486.401,4.822,482.58,1.002,477.868,1.002z M264.534,495.933h-17.067V18.068h17.067V495.933z M42.668,18.068h93.867v8.533     c0,4.713,3.82,8.533,8.533,8.533s8.533-3.82,8.533-8.533v-8.533h76.8v25.6h-8.533c-4.713,0-8.533,3.82-8.533,8.533     s3.821,8.533,8.533,8.533h8.533v17.067h-8.533c-4.713,0-8.533,3.82-8.533,8.533s3.821,8.533,8.533,8.533h8.533v17.067h-8.533     c-4.713,0-8.533,3.82-8.533,8.533s3.821,8.533,8.533,8.533h8.533v17.067h-8.533c-4.713,0-8.533,3.82-8.533,8.533     s3.821,8.533,8.533,8.533h8.533v17.067h-8.533c-4.713,0-8.533,3.82-8.533,8.533c0,4.713,3.821,8.533,8.533,8.533h8.533v17.067     h-8.533c-4.713,0-8.533,3.82-8.533,8.533s3.821,8.533,8.533,8.533h8.533v17.067h-8.533c-4.713,0-8.533,3.821-8.533,8.533     c0,4.713,3.821,8.533,8.533,8.533h8.533v17.067h-8.533c-4.713,0-8.533,3.82-8.533,8.533s3.821,8.533,8.533,8.533h8.533v17.067     h-8.533c-4.713,0-8.533,3.821-8.533,8.533s3.821,8.533,8.533,8.533h8.533v17.067h-8.533c-4.713,0-8.533,3.82-8.533,8.533     s3.821,8.533,8.533,8.533h8.533v17.067h-8.533c-4.713,0-8.533,3.82-8.533,8.533s3.821,8.533,8.533,8.533h8.533v17.067h-8.533     c-4.713,0-8.533,3.82-8.533,8.533s3.821,8.533,8.533,8.533h8.533v17.067h-8.533c-4.713,0-8.533,3.82-8.533,8.533     s3.821,8.533,8.533,8.533h8.533v25.6h-76.8v-8.533c0-4.713-3.82-8.533-8.533-8.533s-8.533,3.82-8.533,8.533v8.533H42.668V18.068z      M469.334,495.935h-93.867v-8.533c0-4.713-3.82-8.533-8.533-8.533s-8.533,3.82-8.533,8.533v8.533h-76.8v-25.6h8.533     c4.713,0,8.533-3.82,8.533-8.533s-3.82-8.533-8.533-8.533h-8.533v-17.067h8.533c4.713,0,8.533-3.82,8.533-8.533     s-3.82-8.533-8.533-8.533h-8.533v-17.067h8.533c4.713,0,8.533-3.82,8.533-8.533s-3.82-8.533-8.533-8.533h-8.533v-17.067h8.533     c4.713,0,8.533-3.82,8.533-8.533s-3.82-8.533-8.533-8.533h-8.533v-17.067h8.533c4.713,0,8.533-3.82,8.533-8.533     s-3.82-8.533-8.533-8.533h-8.533v-17.067h8.533c4.713,0,8.533-3.82,8.533-8.533s-3.82-8.533-8.533-8.533h-8.533v-17.067h8.533     c4.713,0,8.533-3.82,8.533-8.533c0-4.713-3.82-8.533-8.533-8.533h-8.533v-17.067h8.533c4.713,0,8.533-3.82,8.533-8.533     s-3.82-8.533-8.533-8.533h-8.533v-17.067h8.533c4.713,0,8.533-3.82,8.533-8.533c0-4.713-3.82-8.533-8.533-8.533h-8.533v-17.067     h8.533c4.713,0,8.533-3.82,8.533-8.533s-3.82-8.533-8.533-8.533h-8.533v-17.067h8.533c4.713,0,8.533-3.821,8.533-8.533     s-3.82-8.533-8.533-8.533h-8.533V94.868h8.533c4.713,0,8.533-3.82,8.533-8.533s-3.82-8.533-8.533-8.533h-8.533V60.735h8.533     c4.713,0,8.533-3.82,8.533-8.533s-3.82-8.533-8.533-8.533h-8.533v-25.6h76.8v8.533c0,4.713,3.82,8.533,8.533,8.533     s8.533-3.82,8.533-8.533v-8.533h93.867V495.935z"></path>
			<path d="M366.934,67.441c-4.713,0-8.533,3.82-8.533,8.533v32.913c0,4.713,3.82,8.533,8.533,8.533s8.533-3.82,8.533-8.533V75.974     C375.468,71.261,371.647,67.441,366.934,67.441z"></path>
			<path d="M366.934,149.727c-4.713,0-8.533,3.821-8.533,8.533v32.913c0,4.713,3.82,8.533,8.533,8.533s8.533-3.82,8.533-8.533     v-32.913C375.468,153.548,371.647,149.727,366.934,149.727z"></path>
			<path d="M366.934,396.588c-4.713,0-8.533,3.82-8.533,8.533v32.913c0,4.713,3.82,8.533,8.533,8.533s8.533-3.82,8.533-8.533     v-32.913C375.468,400.409,371.647,396.588,366.934,396.588z"></path>
			<path d="M366.934,314.301c-4.713,0-8.533,3.82-8.533,8.533v32.913c0,4.713,3.82,8.533,8.533,8.533s8.533-3.821,8.533-8.533     v-32.913C375.468,318.122,371.647,314.301,366.934,314.301z"></path>
			<path d="M366.934,232.014c-4.713,0-8.533,3.821-8.533,8.533v32.913c0,4.713,3.82,8.533,8.533,8.533s8.533-3.82,8.533-8.533     v-32.913C375.468,235.835,371.647,232.014,366.934,232.014z"></path>
		</g>
	</g>
</g>
<g>
</g>
<g>
</g>
<g>
</g>
<g>
</g>
<g>
</g>
<g>
</g>
<g>
</g>
<g>
</g>
<g>
</g>
<g>
</g>
<g>
</g>
<g>
</g>
<g>
</g>
<g>
</g>
<g>
</g>
</svg>