<svg xmlns="http://www.w3.org/2000/svg" xmlns:xlink="http://www.w3.org/1999/xlink" id="Capa_1" x="0px" y="0px" viewBox="0 0 512 512" style="enable-background:new 0 0 512 512;" xml:space="preserve">
<g>
	<path d="M296,160h-32v-16.455c35.948-3.994,64-34.549,64-71.545c0-39.701-32.299-72-72-72s-72,32.299-72,72   c0,36.996,28.052,67.551,64,71.545V160h-32c-8.822,0-16,7.178-16,16v32c0,8.822,7.178,16,16,16h32v137.376   c-9.311,3.302-16,12.195-16,22.624v112h-8c-4.418,0-8,3.582-8,8s3.582,8,8,8h64c4.418,0,8-3.582,8-8s-3.582-8-8-8h-8V384   c0-10.429-6.689-19.322-16-22.624V224h32c8.822,0,16-7.178,16-16v-32C312,167.178,304.822,160,296,160z M222.481,116.833   L256,83.313l33.519,33.519C280.167,123.843,268.56,128,256,128S231.833,123.843,222.481,116.833z M300.833,105.519L267.313,72   l33.519-33.519C307.843,47.833,312,59.44,312,72C312,84.56,307.843,96.167,300.833,105.519z M289.519,27.167L256,60.687   l-33.519-33.519C231.833,20.157,243.44,16,256,16S280.167,20.157,289.519,27.167z M211.167,38.481L244.687,72l-33.519,33.519   C204.157,96.167,200,84.56,200,72C200,59.44,204.157,47.833,211.167,38.481z M248,496V384c0-4.411,3.589-8,8-8s8,3.589,8,8v112H248   z M296,208h-80v-32h80V208z"></path>
	<path d="M240,184h-8c-4.418,0-8,3.582-8,8s3.582,8,8,8h8c4.418,0,8-3.582,8-8S244.418,184,240,184z"></path>
	<path d="M264,200h16c4.418,0,8-3.582,8-8s-3.582-8-8-8h-16c-4.418,0-8,3.582-8,8S259.582,200,264,200z"></path>
</g>
<g>
</g>
<g>
</g>
<g>
</g>
<g>
</g>
<g>
</g>
<g>
</g>
<g>
</g>
<g>
</g>
<g>
</g>
<g>
</g>
<g>
</g>
<g>
</g>
<g>
</g>
<g>
</g>
<g>
</g>
</svg>